<?xml version="1.0" standalone="no"?>
<!DOCTYPE svg PUBLIC "-//W3C//DTD SVG 20010904//EN"
 "http://www.w3.org/TR/2001/REC-SVG-20010904/DTD/svg10.dtd">
<svg version="1.0" xmlns="http://www.w3.org/2000/svg"
 width="1080.000000pt" height="974.000000pt" viewBox="0 0 1080.000000 974.000000"
 preserveAspectRatio="xMidYMid meet">

<g transform="translate(0.000000,974.000000) scale(0.100000,-0.100000)"
fill="#000000" stroke="none">
<path d="M0 4870 l0 -4870 5400 0 5400 0 0 4870 0 4870 -5400 0 -5400 0 0
-4870z m2003 2679 c211 -31 422 -139 530 -271 194 -236 216 -528 65 -850 -33
-70 -46 -88 -62 -88 -33 0 -121 65 -136 99 -11 29 -10 37 18 94 102 207 129
442 68 596 -48 121 -140 202 -279 246 -67 22 -97 25 -213 25 -154 0 -236 -14
-387 -66 -257 -89 -464 -222 -678 -437 -86 -86 -215 -238 -269 -317 -13 -19
-27 -37 -30 -40 -20 -16 -141 -225 -195 -335 -156 -319 -245 -664 -245 -950 0
-178 51 -374 124 -480 65 -94 119 -130 220 -144 240 -34 581 117 1080 479 386
280 699 596 790 797 24 55 68 72 118 49 42 -20 78 -73 78 -115 0 -27 -226
-652 -265 -733 -8 -17 -9 -28 -3 -28 5 0 75 32 156 70 80 39 187 89 238 111
l92 40 7 62 c22 190 154 421 349 610 l80 78 2 57 c5 183 203 313 451 298 46
-3 91 -9 100 -15 14 -8 7 -9 -27 -5 l-45 6 3 -83 c2 -47 9 -88 15 -94 7 -5 10
-9 8 -8 -2 1 -12 -2 -23 -8 -13 -7 -29 -7 -49 0 -16 5 -29 6 -29 1 0 -5 10
-10 23 -12 19 -3 17 -6 -15 -20 -53 -24 -128 -77 -128 -91 0 -7 14 -27 31 -45
17 -18 27 -37 23 -44 -5 -7 -3 -8 5 -3 9 5 12 1 9 -15 -2 -14 -19 -31 -48 -47
-65 -36 -66 -36 -37 -95 38 -76 75 -111 168 -157 72 -36 78 -41 48 -41 -37 0
-36 -7 1 -13 14 -2 32 -7 40 -10 8 -3 22 -8 30 -11 8 -3 0 -5 -17 -3 -18 2
-33 0 -33 -5 0 -4 -5 -8 -11 -8 -5 0 -7 5 -4 10 3 6 -3 10 -14 10 -12 0 -21
-7 -21 -15 0 -8 -6 -15 -14 -15 -8 0 -18 -4 -21 -10 -4 -7 3 -7 20 0 15 6 34
10 43 10 14 -1 13 -4 -5 -19 -19 -16 -20 -20 -7 -25 9 -3 20 -4 24 -1 17 11 6
-55 -12 -71 -23 -21 -23 -32 -1 -30 12 0 19 -7 21 -21 2 -16 -2 -23 -12 -23
-14 0 -15 -9 -10 -55 5 -38 3 -59 -6 -70 -9 -10 -9 -15 -1 -15 6 0 11 -13 11
-30 0 -19 -5 -30 -14 -30 -12 0 -14 -14 -7 -37 1 -2 1 -6 0 -9 0 -4 5 -11 13
-16 9 -7 10 -11 1 -14 -6 -3 -21 -13 -32 -23 -18 -16 -19 -20 -6 -25 29 -11
19 -19 -115 -86 -30 -15 -85 -35 -121 -44 -81 -20 -254 -21 -326 -2 -49 13
-118 48 -125 64 -2 4 -31 34 -65 66 l-63 59 -62 -28 c-70 -30 -504 -247 -584
-291 -46 -25 -54 -35 -84 -103 -64 -148 -238 -478 -334 -636 -257 -425 -511
-752 -699 -902 -87 -70 -217 -132 -290 -140 -133 -14 -332 98 -413 233 -35 57
-50 161 -34 231 51 229 312 527 752 859 260 195 647 448 826 538 46 23 56 34
78 84 57 127 125 304 120 310 -5 4 -58 -39 -96 -78 -26 -28 -219 -184 -314
-254 -280 -208 -556 -353 -801 -422 -85 -24 -119 -28 -230 -29 -152 0 -216 17
-326 88 -156 99 -254 229 -319 424 -104 312 -68 732 97 1133 35 85 145 304
185 370 135 222 239 360 378 503 170 176 322 291 531 400 241 127 514 180 742
146z m1804 -1335 c-3 -3 -12 -4 -19 -1 -8 3 -5 6 6 6 11 1 17 -2 13 -5z m180
-236 c-3 -8 -6 -5 -6 6 -1 11 2 17 5 13 3 -3 4 -12 1 -19z m-77 -264 c0 -8 -5
-12 -10 -9 -6 4 -8 11 -5 16 9 14 15 11 15 -7z m-34 -60 c-4 -9 -9 -15 -11
-12 -3 3 -3 13 1 22 4 9 9 15 11 12 3 -3 3 -13 -1 -22z m14 -444 c0 -5 -5 -10
-11 -10 -5 0 -7 5 -4 10 3 6 8 10 11 10 2 0 4 -4 4 -10z m-30 -34 c0 -2 -8
-10 -17 -17 -16 -13 -17 -12 -4 4 13 16 21 21 21 13z m-40 -40 c0 -3 -4 -8
-10 -11 -5 -3 -10 -1 -10 4 0 6 5 11 10 11 6 0 10 -2 10 -4z m-40 -10 c0 -3
-4 -8 -10 -11 -5 -3 -10 -1 -10 4 0 6 5 11 10 11 6 0 10 -2 10 -4z m5 -26 c-3
-5 -11 -10 -16 -10 -6 0 -19 -10 -29 -22 -14 -17 -22 -20 -30 -12 -8 8 0 17
32 33 49 24 51 25 43 11z"/>
<path d="M3698 6213 c6 -2 18 -2 25 0 6 3 1 5 -13 5 -14 0 -19 -2 -12 -5z"/>
<path d="M3349 5743 c-90 -101 -199 -260 -199 -292 0 -5 14 -11 32 -15 45 -9
120 -89 116 -123 -3 -22 -17 -31 -118 -73 l-115 -47 -3 -41 c-3 -38 0 -43 25
-53 37 -15 165 -5 227 17 72 25 210 121 294 204 39 40 72 76 72 82 0 5 16 24
35 44 19 19 34 40 32 46 -1 7 -17 18 -35 24 -52 19 -199 123 -268 191 -35 35
-66 63 -67 63 -2 0 -14 -12 -28 -27z"/>
<path d="M3688 5643 c7 -3 16 -2 19 1 4 3 -2 6 -13 5 -11 0 -14 -3 -6 -6z"/>
<path d="M3665 5350 c-3 -5 -1 -10 4 -10 6 0 11 5 11 10 0 6 -2 10 -4 10 -3 0
-8 -4 -11 -10z"/>
<path d="M3665 5310 c-3 -5 -1 -10 4 -10 6 0 11 5 11 10 0 6 -2 10 -4 10 -3 0
-8 -4 -11 -10z"/>
<path d="M1755 4512 c-199 -136 -597 -445 -755 -586 -113 -101 -330 -328 -374
-391 -97 -138 -120 -244 -69 -306 100 -119 262 -80 467 110 101 95 298 346
446 571 130 197 376 630 368 649 -2 4 -39 -17 -83 -47z"/>
</g>
</svg>
